<svg xmlns="http://www.w3.org/2000/svg" viewBox="0 0 1400 1000" width="1400" height="1000" preserveAspectRatio="xMidYMid slice" role="img">
  <defs>
    <filter id="n7483" x="0" y="0" width="100%" height="100%">
      <feTurbulence type="fractalNoise" baseFrequency="0.8" numOctaves="4" seed="7483" stitchTiles="stitch"/>
      <feColorMatrix type="saturate" values="0"/>
    </filter>
  </defs>
  <rect width="1400" height="1000" fill="#14100E"/>

  <rect width="1400" height="620" fill="#1C1613"/>
  <rect y="620" width="1400" height="380" fill="#221A16"/>
  <rect y="620" width="1400" height="6" fill="#C79A4E" opacity=".2"/>
  <!-- banquette -->
  <path d="M80 620 v-210 q0 -40 40 -40 h520 q40 0 40 40 v210 z" fill="#4A3324"/>
  <path d="M110 530 h500" stroke="#2E1F19" stroke-width="10" opacity=".6"/>
  <!-- arch window -->
  <path d="M840 560 V300 a140 140 0 0 1 280 0 V560 Z" fill="#0F0C0A"/>
  <path d="M840 560 V300 a140 140 0 0 1 280 0 V560" fill="none" stroke="#4A3324" stroke-width="9"/>
  <path d="M980 160 V560 M840 410 H1120" stroke="#4A3324" stroke-width="7"/>
  <g>
    <path d="M300 0 V150" stroke="#4A3324" stroke-width="3"/>
    <circle cx="300" cy="176" r="26" fill="#C79A4E" opacity=".9"/>
    <circle cx="300" cy="176" r="88" fill="#C79A4E" opacity=".1"/>
    <path d="M1000 0 V120" stroke="#4A3324" stroke-width="3"/>
    <circle cx="1000" cy="146" r="22" fill="#C79A4E" opacity=".9"/>
    <circle cx="1000" cy="146" r="76" fill="#C79A4E" opacity=".1"/>
  </g>
  <g transform="translate(380 800)">
    <ellipse cx="0" cy="0" rx="200" ry="38" fill="#4A3324"/>
    <ellipse cx="0" cy="-12" rx="200" ry="38" fill="#4A3324"/>
    <rect x="-16" y="-12" width="32" height="130" fill="#2E1F19"/>
    
  <g transform="translate(-70 -22) scale(1.0)">
    <circle cx="0" cy="-46" r="70" fill="#C79A4E" opacity=".13"/>
    <rect x="-9" y="-46" width="18" height="46" rx="4" fill="#F2EAD9" opacity=".85"/>
    <path d="M0 -76 c14 14 14 24 0 30 c-14 -6 -14 -16 0 -30 z" fill="#C79A4E"/>
  </g>
    
  <g transform="translate(60 -26) scale(0.8)">
    <circle cx="0" cy="-46" r="70" fill="#C79A4E" opacity=".13"/>
    <rect x="-9" y="-46" width="18" height="46" rx="4" fill="#F2EAD9" opacity=".85"/>
    <path d="M0 -76 c14 14 14 24 0 30 c-14 -6 -14 -16 0 -30 z" fill="#C79A4E"/>
  </g>
    <ellipse cx="132" cy="-18" rx="40" ry="11" fill="#F2EAD9" opacity=".5"/>
  </g>
  <g transform="translate(1080 830)">
    <ellipse cx="0" cy="0" rx="150" ry="30" fill="#4A3324"/>
    <ellipse cx="0" cy="-10" rx="150" ry="30" fill="#4A3324"/>
    <rect x="-13" y="-10" width="26" height="110" fill="#2E1F19"/>
    
  <g transform="translate(-40 -18) scale(0.85)">
    <circle cx="0" cy="-46" r="70" fill="#C79A4E" opacity=".13"/>
    <rect x="-9" y="-46" width="18" height="46" rx="4" fill="#F2EAD9" opacity=".85"/>
    <path d="M0 -76 c14 14 14 24 0 30 c-14 -6 -14 -16 0 -30 z" fill="#C79A4E"/>
  </g>
  </g>
  <rect width="1400" height="1000" filter="url(#n7483)" opacity="0.16" style="mix-blend-mode:overlay"/>
</svg>
